solid ascii
  facet normal 0.000000e+000 0.000000e+000 1.000000e+000
    outer loop
      vertex   -5.310004e+001 1.186004e+002 6.300000e+001
      vertex   -5.810004e+001 1.186004e+002 6.300000e+001
      vertex   -5.310004e+001 1.136004e+002 6.300000e+001
    endloop
  endfacet
  facet normal 0.000000e+000 0.000000e+000 1.000000e+000
    outer loop
      vertex   -5.310004e+001 1.136004e+002 6.300000e+001
      vertex   -5.810004e+001 1.186004e+002 6.300000e+001
      vertex   -5.810004e+001 1.136004e+002 6.300000e+001
    endloop
  endfacet
  facet normal 0.000000e+000 -1.000000e+000 0.000000e+000
    outer loop
      vertex   -5.810004e+001 1.136004e+002 6.300000e+001
      vertex   -5.810004e+001 1.136004e+002 3.300000e+001
      vertex   -5.310004e+001 1.136004e+002 6.300000e+001
    endloop
  endfacet
  facet normal 0.000000e+000 -1.000000e+000 -0.000000e+000
    outer loop
      vertex   -5.310004e+001 1.136004e+002 6.300000e+001
      vertex   -5.810004e+001 1.136004e+002 3.300000e+001
      vertex   -5.310004e+001 1.136004e+002 3.300000e+001
    endloop
  endfacet
  facet normal -0.000000e+000 -1.000000e+000 -0.000000e+000
    outer loop
      vertex   -5.310004e+001 1.136004e+002 3.300000e+001
      vertex   -5.810004e+001 1.136004e+002 3.300000e+001
      vertex   -5.810004e+001 1.136004e+002 3.000000e+000
    endloop
  endfacet
  facet normal -0.000000e+000 -1.000000e+000 0.000000e+000
    outer loop
      vertex   -5.310004e+001 1.136004e+002 3.000000e+000
      vertex   -5.310004e+001 1.136004e+002 3.300000e+001
      vertex   -5.810004e+001 1.136004e+002 3.000000e+000
    endloop
  endfacet
  facet normal -1.000000e+000 -0.000000e+000 -0.000000e+000
    outer loop
      vertex   -5.810004e+001 1.186004e+002 6.300000e+001
      vertex   -5.810004e+001 1.186004e+002 3.300000e+001
      vertex   -5.810004e+001 1.136004e+002 6.300000e+001
    endloop
  endfacet
  facet normal -1.000000e+000 -0.000000e+000 -0.000000e+000
    outer loop
      vertex   -5.810004e+001 1.136004e+002 6.300000e+001
      vertex   -5.810004e+001 1.186004e+002 3.300000e+001
      vertex   -5.810004e+001 1.136004e+002 3.300000e+001
    endloop
  endfacet
  facet normal -1.000000e+000 0.000000e+000 0.000000e+000
    outer loop
      vertex   -5.810004e+001 1.136004e+002 3.300000e+001
      vertex   -5.810004e+001 1.186004e+002 3.300000e+001
      vertex   -5.810004e+001 1.186004e+002 3.000000e+000
    endloop
  endfacet
  facet normal -1.000000e+000 0.000000e+000 0.000000e+000
    outer loop
      vertex   -5.810004e+001 1.136004e+002 3.000000e+000
      vertex   -5.810004e+001 1.136004e+002 3.300000e+001
      vertex   -5.810004e+001 1.186004e+002 3.000000e+000
    endloop
  endfacet
  facet normal 0.000000e+000 1.000000e+000 0.000000e+000
    outer loop
      vertex   -5.310004e+001 1.186004e+002 6.300000e+001
      vertex   -5.310004e+001 1.186004e+002 3.300000e+001
      vertex   -5.810004e+001 1.186004e+002 6.300000e+001
    endloop
  endfacet
  facet normal 0.000000e+000 1.000000e+000 0.000000e+000
    outer loop
      vertex   -5.810004e+001 1.186004e+002 6.300000e+001
      vertex   -5.310004e+001 1.186004e+002 3.300000e+001
      vertex   -5.810004e+001 1.186004e+002 3.300000e+001
    endloop
  endfacet
  facet normal -0.000000e+000 1.000000e+000 0.000000e+000
    outer loop
      vertex   -5.810004e+001 1.186004e+002 3.300000e+001
      vertex   -5.310004e+001 1.186004e+002 3.300000e+001
      vertex   -5.310004e+001 1.186004e+002 3.000000e+000
    endloop
  endfacet
  facet normal -0.000000e+000 1.000000e+000 0.000000e+000
    outer loop
      vertex   -5.810004e+001 1.186004e+002 3.000000e+000
      vertex   -5.810004e+001 1.186004e+002 3.300000e+001
      vertex   -5.310004e+001 1.186004e+002 3.000000e+000
    endloop
  endfacet
  facet normal 1.000000e+000 -0.000000e+000 0.000000e+000
    outer loop
      vertex   -5.310004e+001 1.136004e+002 6.300000e+001
      vertex   -5.310004e+001 1.136004e+002 3.300000e+001
      vertex   -5.310004e+001 1.186004e+002 6.300000e+001
    endloop
  endfacet
  facet normal 1.000000e+000 -0.000000e+000 0.000000e+000
    outer loop
      vertex   -5.310004e+001 1.186004e+002 6.300000e+001
      vertex   -5.310004e+001 1.136004e+002 3.300000e+001
      vertex   -5.310004e+001 1.186004e+002 3.300000e+001
    endloop
  endfacet
  facet normal 1.000000e+000 0.000000e+000 0.000000e+000
    outer loop
      vertex   -5.310004e+001 1.186004e+002 3.300000e+001
      vertex   -5.310004e+001 1.136004e+002 3.300000e+001
      vertex   -5.310004e+001 1.136004e+002 3.000000e+000
    endloop
  endfacet
  facet normal 1.000000e+000 0.000000e+000 -0.000000e+000
    outer loop
      vertex   -5.310004e+001 1.186004e+002 3.000000e+000
      vertex   -5.310004e+001 1.186004e+002 3.300000e+001
      vertex   -5.310004e+001 1.136004e+002 3.000000e+000
    endloop
  endfacet
  facet normal 0.000000e+000 0.000000e+000 1.000000e+000
    outer loop
      vertex   -5.899594e+000 1.186001e+002 6.300000e+001
      vertex   -1.089959e+001 1.186001e+002 6.300000e+001
      vertex   -5.899594e+000 1.136001e+002 6.300000e+001
    endloop
  endfacet
  facet normal 0.000000e+000 0.000000e+000 1.000000e+000
    outer loop
      vertex   -5.899594e+000 1.136001e+002 6.300000e+001
      vertex   -1.089959e+001 1.186001e+002 6.300000e+001
      vertex   -1.089959e+001 1.136001e+002 6.300000e+001
    endloop
  endfacet
  facet normal 0.000000e+000 -1.000000e+000 0.000000e+000
    outer loop
      vertex   -1.089959e+001 1.136001e+002 6.300000e+001
      vertex   -1.089959e+001 1.136001e+002 3.300000e+001
      vertex   -5.899594e+000 1.136001e+002 6.300000e+001
    endloop
  endfacet
  facet normal 0.000000e+000 -1.000000e+000 -0.000000e+000
    outer loop
      vertex   -5.899594e+000 1.136001e+002 6.300000e+001
      vertex   -1.089959e+001 1.136001e+002 3.300000e+001
      vertex   -5.899594e+000 1.136001e+002 3.300000e+001
    endloop
  endfacet
  facet normal -0.000000e+000 -1.000000e+000 -0.000000e+000
    outer loop
      vertex   -5.899594e+000 1.136001e+002 3.300000e+001
      vertex   -1.089959e+001 1.136001e+002 3.300000e+001
      vertex   -1.089959e+001 1.136001e+002 3.000000e+000
    endloop
  endfacet
  facet normal -0.000000e+000 -1.000000e+000 0.000000e+000
    outer loop
      vertex   -5.899594e+000 1.136001e+002 3.000000e+000
      vertex   -5.899594e+000 1.136001e+002 3.300000e+001
      vertex   -1.089959e+001 1.136001e+002 3.000000e+000
    endloop
  endfacet
  facet normal -1.000000e+000 -0.000000e+000 -0.000000e+000
    outer loop
      vertex   -1.089959e+001 1.186001e+002 6.300000e+001
      vertex   -1.089959e+001 1.186001e+002 3.300000e+001
      vertex   -1.089959e+001 1.136001e+002 6.300000e+001
    endloop
  endfacet
  facet normal -1.000000e+000 -0.000000e+000 -0.000000e+000
    outer loop
      vertex   -1.089959e+001 1.136001e+002 6.300000e+001
      vertex   -1.089959e+001 1.186001e+002 3.300000e+001
      vertex   -1.089959e+001 1.136001e+002 3.300000e+001
    endloop
  endfacet
  facet normal -1.000000e+000 0.000000e+000 0.000000e+000
    outer loop
      vertex   -1.089959e+001 1.136001e+002 3.300000e+001
      vertex   -1.089959e+001 1.186001e+002 3.300000e+001
      vertex   -1.089959e+001 1.186001e+002 3.000000e+000
    endloop
  endfacet
  facet normal -1.000000e+000 0.000000e+000 0.000000e+000
    outer loop
      vertex   -1.089959e+001 1.136001e+002 3.000000e+000
      vertex   -1.089959e+001 1.136001e+002 3.300000e+001
      vertex   -1.089959e+001 1.186001e+002 3.000000e+000
    endloop
  endfacet
  facet normal 0.000000e+000 1.000000e+000 0.000000e+000
    outer loop
      vertex   -5.899594e+000 1.186001e+002 6.300000e+001
      vertex   -5.899594e+000 1.186001e+002 3.300000e+001
      vertex   -1.089959e+001 1.186001e+002 6.300000e+001
    endloop
  endfacet
  facet normal 0.000000e+000 1.000000e+000 0.000000e+000
    outer loop
      vertex   -1.089959e+001 1.186001e+002 6.300000e+001
      vertex   -5.899594e+000 1.186001e+002 3.300000e+001
      vertex   -1.089959e+001 1.186001e+002 3.300000e+001
    endloop
  endfacet
  facet normal -0.000000e+000 1.000000e+000 0.000000e+000
    outer loop
      vertex   -1.089959e+001 1.186001e+002 3.300000e+001
      vertex   -5.899594e+000 1.186001e+002 3.300000e+001
      vertex   -5.899594e+000 1.186001e+002 3.000000e+000
    endloop
  endfacet
  facet normal -0.000000e+000 1.000000e+000 0.000000e+000
    outer loop
      vertex   -1.089959e+001 1.186001e+002 3.000000e+000
      vertex   -1.089959e+001 1.186001e+002 3.300000e+001
      vertex   -5.899594e+000 1.186001e+002 3.000000e+000
    endloop
  endfacet
  facet normal 1.000000e+000 -0.000000e+000 0.000000e+000
    outer loop
      vertex   -5.899594e+000 1.136001e+002 6.300000e+001
      vertex   -5.899594e+000 1.136001e+002 3.300000e+001
      vertex   -5.899594e+000 1.186001e+002 6.300000e+001
    endloop
  endfacet
  facet normal 1.000000e+000 -0.000000e+000 0.000000e+000
    outer loop
      vertex   -5.899594e+000 1.186001e+002 6.300000e+001
      vertex   -5.899594e+000 1.136001e+002 3.300000e+001
      vertex   -5.899594e+000 1.186001e+002 3.300000e+001
    endloop
  endfacet
  facet normal 1.000000e+000 0.000000e+000 0.000000e+000
    outer loop
      vertex   -5.899594e+000 1.186001e+002 3.300000e+001
      vertex   -5.899594e+000 1.136001e+002 3.300000e+001
      vertex   -5.899594e+000 1.136001e+002 3.000000e+000
    endloop
  endfacet
  facet normal 1.000000e+000 0.000000e+000 -0.000000e+000
    outer loop
      vertex   -5.899594e+000 1.186001e+002 3.000000e+000
      vertex   -5.899594e+000 1.186001e+002 3.300000e+001
      vertex   -5.899594e+000 1.136001e+002 3.000000e+000
    endloop
  endfacet
  facet normal 0.000000e+000 0.000000e+000 1.000000e+000
    outer loop
      vertex   -5.900460e+000 1.339962e+001 6.300000e+001
      vertex   -1.090046e+001 1.339962e+001 6.300000e+001
      vertex   -5.900460e+000 8.399615e+000 6.300000e+001
    endloop
  endfacet
  facet normal 0.000000e+000 0.000000e+000 1.000000e+000
    outer loop
      vertex   -5.900460e+000 8.399615e+000 6.300000e+001
      vertex   -1.090046e+001 1.339962e+001 6.300000e+001
      vertex   -1.090046e+001 8.399615e+000 6.300000e+001
    endloop
  endfacet
  facet normal 0.000000e+000 -1.000000e+000 0.000000e+000
    outer loop
      vertex   -1.090046e+001 8.399615e+000 6.300000e+001
      vertex   -1.090046e+001 8.399615e+000 3.300000e+001
      vertex   -5.900460e+000 8.399615e+000 6.300000e+001
    endloop
  endfacet
  facet normal 0.000000e+000 -1.000000e+000 -0.000000e+000
    outer loop
      vertex   -5.900460e+000 8.399615e+000 6.300000e+001
      vertex   -1.090046e+001 8.399615e+000 3.300000e+001
      vertex   -5.900460e+000 8.399615e+000 3.300000e+001
    endloop
  endfacet
  facet normal -0.000000e+000 -1.000000e+000 -0.000000e+000
    outer loop
      vertex   -5.900460e+000 8.399615e+000 3.300000e+001
      vertex   -1.090046e+001 8.399615e+000 3.300000e+001
      vertex   -1.090046e+001 8.399615e+000 3.000000e+000
    endloop
  endfacet
  facet normal -0.000000e+000 -1.000000e+000 0.000000e+000
    outer loop
      vertex   -5.900460e+000 8.399615e+000 3.000000e+000
      vertex   -5.900460e+000 8.399615e+000 3.300000e+001
      vertex   -1.090046e+001 8.399615e+000 3.000000e+000
    endloop
  endfacet
  facet normal -1.000000e+000 -0.000000e+000 -0.000000e+000
    outer loop
      vertex   -1.090046e+001 1.339962e+001 6.300000e+001
      vertex   -1.090046e+001 1.339962e+001 3.300000e+001
      vertex   -1.090046e+001 8.399615e+000 6.300000e+001
    endloop
  endfacet
  facet normal -1.000000e+000 -0.000000e+000 -0.000000e+000
    outer loop
      vertex   -1.090046e+001 8.399615e+000 6.300000e+001
      vertex   -1.090046e+001 1.339962e+001 3.300000e+001
      vertex   -1.090046e+001 8.399615e+000 3.300000e+001
    endloop
  endfacet
  facet normal -1.000000e+000 0.000000e+000 0.000000e+000
    outer loop
      vertex   -1.090046e+001 8.399615e+000 3.300000e+001
      vertex   -1.090046e+001 1.339962e+001 3.300000e+001
      vertex   -1.090046e+001 1.339962e+001 3.000000e+000
    endloop
  endfacet
  facet normal -1.000000e+000 0.000000e+000 0.000000e+000
    outer loop
      vertex   -1.090046e+001 8.399615e+000 3.000000e+000
      vertex   -1.090046e+001 8.399615e+000 3.300000e+001
      vertex   -1.090046e+001 1.339962e+001 3.000000e+000
    endloop
  endfacet
  facet normal 0.000000e+000 1.000000e+000 0.000000e+000
    outer loop
      vertex   -5.900460e+000 1.339962e+001 6.300000e+001
      vertex   -5.900460e+000 1.339962e+001 3.300000e+001
      vertex   -1.090046e+001 1.339962e+001 6.300000e+001
    endloop
  endfacet
  facet normal 0.000000e+000 1.000000e+000 0.000000e+000
    outer loop
      vertex   -1.090046e+001 1.339962e+001 6.300000e+001
      vertex   -5.900460e+000 1.339962e+001 3.300000e+001
      vertex   -1.090046e+001 1.339962e+001 3.300000e+001
    endloop
  endfacet
  facet normal -0.000000e+000 1.000000e+000 0.000000e+000
    outer loop
      vertex   -1.090046e+001 1.339962e+001 3.300000e+001
      vertex   -5.900460e+000 1.339962e+001 3.300000e+001
      vertex   -5.900460e+000 1.339962e+001 3.000000e+000
    endloop
  endfacet
  facet normal -0.000000e+000 1.000000e+000 0.000000e+000
    outer loop
      vertex   -1.090046e+001 1.339962e+001 3.000000e+000
      vertex   -1.090046e+001 1.339962e+001 3.300000e+001
      vertex   -5.900460e+000 1.339962e+001 3.000000e+000
    endloop
  endfacet
  facet normal 1.000000e+000 -0.000000e+000 0.000000e+000
    outer loop
      vertex   -5.900460e+000 8.399615e+000 6.300000e+001
      vertex   -5.900460e+000 8.399615e+000 3.300000e+001
      vertex   -5.900460e+000 1.339962e+001 6.300000e+001
    endloop
  endfacet
  facet normal 1.000000e+000 -0.000000e+000 0.000000e+000
    outer loop
      vertex   -5.900460e+000 1.339962e+001 6.300000e+001
      vertex   -5.900460e+000 8.399615e+000 3.300000e+001
      vertex   -5.900460e+000 1.339962e+001 3.300000e+001
    endloop
  endfacet
  facet normal 1.000000e+000 0.000000e+000 0.000000e+000
    outer loop
      vertex   -5.900460e+000 1.339962e+001 3.300000e+001
      vertex   -5.900460e+000 8.399615e+000 3.300000e+001
      vertex   -5.900460e+000 8.399615e+000 3.000000e+000
    endloop
  endfacet
  facet normal 1.000000e+000 0.000000e+000 -0.000000e+000
    outer loop
      vertex   -5.900460e+000 1.339962e+001 3.000000e+000
      vertex   -5.900460e+000 1.339962e+001 3.300000e+001
      vertex   -5.900460e+000 8.399615e+000 3.000000e+000
    endloop
  endfacet
  facet normal 0.000000e+000 0.000000e+000 1.000000e+000
    outer loop
      vertex   -5.310004e+001 1.340034e+001 6.300000e+001
      vertex   -5.810004e+001 1.340034e+001 6.300000e+001
      vertex   -5.310004e+001 8.400335e+000 6.300000e+001
    endloop
  endfacet
  facet normal 0.000000e+000 0.000000e+000 1.000000e+000
    outer loop
      vertex   -5.310004e+001 8.400335e+000 6.300000e+001
      vertex   -5.810004e+001 1.340034e+001 6.300000e+001
      vertex   -5.810004e+001 8.400335e+000 6.300000e+001
    endloop
  endfacet
  facet normal 0.000000e+000 -1.000000e+000 0.000000e+000
    outer loop
      vertex   -5.810004e+001 8.400335e+000 6.300000e+001
      vertex   -5.810004e+001 8.400335e+000 3.300000e+001
      vertex   -5.310004e+001 8.400335e+000 6.300000e+001
    endloop
  endfacet
  facet normal 0.000000e+000 -1.000000e+000 -0.000000e+000
    outer loop
      vertex   -5.310004e+001 8.400335e+000 6.300000e+001
      vertex   -5.810004e+001 8.400335e+000 3.300000e+001
      vertex   -5.310004e+001 8.400335e+000 3.300000e+001
    endloop
  endfacet
  facet normal -0.000000e+000 -1.000000e+000 -0.000000e+000
    outer loop
      vertex   -5.310004e+001 8.400335e+000 3.300000e+001
      vertex   -5.810004e+001 8.400335e+000 3.300000e+001
      vertex   -5.810004e+001 8.400335e+000 3.000000e+000
    endloop
  endfacet
  facet normal -0.000000e+000 -1.000000e+000 0.000000e+000
    outer loop
      vertex   -5.310004e+001 8.400335e+000 3.000000e+000
      vertex   -5.310004e+001 8.400335e+000 3.300000e+001
      vertex   -5.810004e+001 8.400335e+000 3.000000e+000
    endloop
  endfacet
  facet normal -1.000000e+000 -0.000000e+000 -0.000000e+000
    outer loop
      vertex   -5.810004e+001 1.340034e+001 6.300000e+001
      vertex   -5.810004e+001 1.340034e+001 3.300000e+001
      vertex   -5.810004e+001 8.400335e+000 6.300000e+001
    endloop
  endfacet
  facet normal -1.000000e+000 -0.000000e+000 -0.000000e+000
    outer loop
      vertex   -5.810004e+001 8.400335e+000 6.300000e+001
      vertex   -5.810004e+001 1.340034e+001 3.300000e+001
      vertex   -5.810004e+001 8.400335e+000 3.300000e+001
    endloop
  endfacet
  facet normal -1.000000e+000 0.000000e+000 0.000000e+000
    outer loop
      vertex   -5.810004e+001 8.400335e+000 3.300000e+001
      vertex   -5.810004e+001 1.340034e+001 3.300000e+001
      vertex   -5.810004e+001 1.340034e+001 3.000000e+000
    endloop
  endfacet
  facet normal -1.000000e+000 0.000000e+000 0.000000e+000
    outer loop
      vertex   -5.810004e+001 8.400335e+000 3.000000e+000
      vertex   -5.810004e+001 8.400335e+000 3.300000e+001
      vertex   -5.810004e+001 1.340034e+001 3.000000e+000
    endloop
  endfacet
  facet normal 0.000000e+000 1.000000e+000 0.000000e+000
    outer loop
      vertex   -5.310004e+001 1.340034e+001 6.300000e+001
      vertex   -5.310004e+001 1.340034e+001 3.300000e+001
      vertex   -5.810004e+001 1.340034e+001 6.300000e+001
    endloop
  endfacet
  facet normal 0.000000e+000 1.000000e+000 0.000000e+000
    outer loop
      vertex   -5.810004e+001 1.340034e+001 6.300000e+001
      vertex   -5.310004e+001 1.340034e+001 3.300000e+001
      vertex   -5.810004e+001 1.340034e+001 3.300000e+001
    endloop
  endfacet
  facet normal -0.000000e+000 1.000000e+000 0.000000e+000
    outer loop
      vertex   -5.810004e+001 1.340034e+001 3.300000e+001
      vertex   -5.310004e+001 1.340034e+001 3.300000e+001
      vertex   -5.310004e+001 1.340034e+001 3.000000e+000
    endloop
  endfacet
  facet normal -0.000000e+000 1.000000e+000 0.000000e+000
    outer loop
      vertex   -5.810004e+001 1.340034e+001 3.000000e+000
      vertex   -5.810004e+001 1.340034e+001 3.300000e+001
      vertex   -5.310004e+001 1.340034e+001 3.000000e+000
    endloop
  endfacet
  facet normal 1.000000e+000 -0.000000e+000 0.000000e+000
    outer loop
      vertex   -5.310004e+001 8.400335e+000 6.300000e+001
      vertex   -5.310004e+001 8.400335e+000 3.300000e+001
      vertex   -5.310004e+001 1.340034e+001 6.300000e+001
    endloop
  endfacet
  facet normal 1.000000e+000 -0.000000e+000 0.000000e+000
    outer loop
      vertex   -5.310004e+001 1.340034e+001 6.300000e+001
      vertex   -5.310004e+001 8.400335e+000 3.300000e+001
      vertex   -5.310004e+001 1.340034e+001 3.300000e+001
    endloop
  endfacet
  facet normal 1.000000e+000 0.000000e+000 0.000000e+000
    outer loop
      vertex   -5.310004e+001 1.340034e+001 3.300000e+001
      vertex   -5.310004e+001 8.400335e+000 3.300000e+001
      vertex   -5.310004e+001 8.400335e+000 3.000000e+000
    endloop
  endfacet
  facet normal 1.000000e+000 0.000000e+000 -0.000000e+000
    outer loop
      vertex   -5.310004e+001 1.340034e+001 3.000000e+000
      vertex   -5.310004e+001 1.340034e+001 3.300000e+001
      vertex   -5.310004e+001 8.400335e+000 3.000000e+000
    endloop
  endfacet
  facet normal 0.000000e+000 -2.387008e-016 1.000000e+000
    outer loop
      vertex   -5.810004e+001 1.136004e+002 3.000000e+000
      vertex   -6.400000e+001 8.383333e+001 3.000000e+000
      vertex   -5.310004e+001 1.136004e+002 3.000000e+000
    endloop
  endfacet
  facet normal -1.204317e-015 0.000000e+000 1.000000e+000
    outer loop
      vertex   -5.810004e+001 1.136004e+002 3.000000e+000
      vertex   -6.400000e+001 1.245000e+002 3.000000e+000
      vertex   -6.400000e+001 8.383333e+001 3.000000e+000
    endloop
  endfacet
  facet normal -1.204317e-015 0.000000e+000 1.000000e+000
    outer loop
      vertex   -5.810004e+001 1.136004e+002 3.000000e+000
      vertex   -5.810004e+001 1.186004e+002 3.000000e+000
      vertex   -6.400000e+001 1.245000e+002 3.000000e+000
    endloop
  endfacet
  facet normal -0.000000e+000 1.204396e-015 1.000000e+000
    outer loop
      vertex   -6.400000e+001 1.245000e+002 3.000000e+000
      vertex   -5.810004e+001 1.186004e+002 3.000000e+000
      vertex   -5.310004e+001 1.186004e+002 3.000000e+000
    endloop
  endfacet
  facet normal 3.367495e-016 0.000000e+000 1.000000e+000
    outer loop
      vertex   -3.200000e+001 1.245000e+002 3.000000e+000
      vertex   -5.310004e+001 1.186004e+002 3.000000e+000
      vertex   -3.200000e+001 1.136002e+002 3.000000e+000
    endloop
  endfacet
  facet normal 8.418591e-017 0.000000e+000 1.000000e+000
    outer loop
      vertex   -1.089959e+001 1.186001e+002 3.000000e+000
      vertex   -3.200000e+001 1.136002e+002 3.000000e+000
      vertex   -1.089959e+001 1.136001e+002 3.000000e+000
    endloop
  endfacet
  facet normal 8.418591e-017 0.000000e+000 1.000000e+000
    outer loop
      vertex   -1.089959e+001 1.186001e+002 3.000000e+000
      vertex   -3.200000e+001 1.245000e+002 3.000000e+000
      vertex   -3.200000e+001 1.136002e+002 3.000000e+000
    endloop
  endfacet
  facet normal 0.000000e+000 -3.010830e-016 1.000000e+000
    outer loop
      vertex   -1.089959e+001 1.186001e+002 3.000000e+000
      vertex   0.000000e+000 1.245000e+002 3.000000e+000
      vertex   -3.200000e+001 1.245000e+002 3.000000e+000
    endloop
  endfacet
  facet normal 0.000000e+000 -3.010830e-016 1.000000e+000
    outer loop
      vertex   -1.089959e+001 1.186001e+002 3.000000e+000
      vertex   -5.899594e+000 1.186001e+002 3.000000e+000
      vertex   0.000000e+000 1.245000e+002 3.000000e+000
    endloop
  endfacet
  facet normal -3.010982e-016 0.000000e+000 1.000000e+000
    outer loop
      vertex   0.000000e+000 1.245000e+002 3.000000e+000
      vertex   -5.899594e+000 1.186001e+002 3.000000e+000
      vertex   -5.899594e+000 1.136001e+002 3.000000e+000
    endloop
  endfacet
  facet normal 0.000000e+000 5.967582e-017 1.000000e+000
    outer loop
      vertex   0.000000e+000 8.383333e+001 3.000000e+000
      vertex   -5.899594e+000 1.136001e+002 3.000000e+000
      vertex   -1.089959e+001 1.136001e+002 3.000000e+000
    endloop
  endfacet
  facet normal 8.418591e-017 0.000000e+000 1.000000e+000
    outer loop
      vertex   -3.200000e+001 8.383333e+001 3.000000e+000
      vertex   -1.089959e+001 1.136001e+002 3.000000e+000
      vertex   -3.200000e+001 1.136002e+002 3.000000e+000
    endloop
  endfacet
  facet normal 3.367495e-016 0.000000e+000 1.000000e+000
    outer loop
      vertex   -5.310004e+001 1.136004e+002 3.000000e+000
      vertex   -3.200000e+001 1.136002e+002 3.000000e+000
      vertex   -5.310004e+001 1.186004e+002 3.000000e+000
    endloop
  endfacet
  facet normal 3.367495e-016 -0.000000e+000 1.000000e+000
    outer loop
      vertex   -5.310004e+001 1.136004e+002 3.000000e+000
      vertex   -3.200000e+001 8.383333e+001 3.000000e+000
      vertex   -3.200000e+001 1.136002e+002 3.000000e+000
    endloop
  endfacet
  facet normal 0.000000e+000 -2.387008e-016 1.000000e+000
    outer loop
      vertex   -5.310004e+001 1.136004e+002 3.000000e+000
      vertex   -6.400000e+001 8.383333e+001 3.000000e+000
      vertex   -3.200000e+001 8.383333e+001 3.000000e+000
    endloop
  endfacet
  facet normal 0.000000e+000 0.000000e+000 1.000000e+000
    outer loop
      vertex   -3.200000e+001 8.383333e+001 3.000000e+000
      vertex   -6.400000e+001 8.383333e+001 3.000000e+000
      vertex   -3.200000e+001 4.316667e+001 3.000000e+000
    endloop
  endfacet
  facet normal 0.000000e+000 -5.967527e-017 1.000000e+000
    outer loop
      vertex   0.000000e+000 4.316667e+001 3.000000e+000
      vertex   -3.200000e+001 4.316667e+001 3.000000e+000
      vertex   -1.090046e+001 1.339962e+001 3.000000e+000
    endloop
  endfacet
  facet normal 0.000000e+000 -5.967527e-017 1.000000e+000
    outer loop
      vertex   -5.900460e+000 1.339962e+001 3.000000e+000
      vertex   0.000000e+000 4.316667e+001 3.000000e+000
      vertex   -1.090046e+001 1.339962e+001 3.000000e+000
    endloop
  endfacet
  facet normal -3.010540e-016 0.000000e+000 1.000000e+000
    outer loop
      vertex   -5.900460e+000 1.339962e+001 3.000000e+000
      vertex   0.000000e+000 2.500000e+000 3.000000e+000
      vertex   0.000000e+000 4.316667e+001 3.000000e+000
    endloop
  endfacet
  facet normal -3.010540e-016 0.000000e+000 1.000000e+000
    outer loop
      vertex   -5.900460e+000 1.339962e+001 3.000000e+000
      vertex   -5.900460e+000 8.399615e+000 3.000000e+000
      vertex   0.000000e+000 2.500000e+000 3.000000e+000
    endloop
  endfacet
  facet normal 0.000000e+000 3.010971e-016 1.000000e+000
    outer loop
      vertex   0.000000e+000 2.500000e+000 3.000000e+000
      vertex   -5.900460e+000 8.399615e+000 3.000000e+000
      vertex   -1.090046e+001 8.399615e+000 3.000000e+000
    endloop
  endfacet
  facet normal 8.418936e-017 0.000000e+000 1.000000e+000
    outer loop
      vertex   -3.200000e+001 2.500000e+000 3.000000e+000
      vertex   -1.090046e+001 8.399615e+000 3.000000e+000
      vertex   -3.200000e+001 8.399937e+000 3.000000e+000
    endloop
  endfacet
  facet normal 3.367495e-016 0.000000e+000 1.000000e+000
    outer loop
      vertex   -5.310004e+001 8.400335e+000 3.000000e+000
      vertex   -3.200000e+001 8.399937e+000 3.000000e+000
      vertex   -5.310004e+001 1.340034e+001 3.000000e+000
    endloop
  endfacet
  facet normal 3.367495e-016 -0.000000e+000 1.000000e+000
    outer loop
      vertex   -5.310004e+001 8.400335e+000 3.000000e+000
      vertex   -3.200000e+001 2.500000e+000 3.000000e+000
      vertex   -3.200000e+001 8.399937e+000 3.000000e+000
    endloop
  endfacet
  facet normal 0.000000e+000 -1.204241e-015 1.000000e+000
    outer loop
      vertex   -5.310004e+001 8.400335e+000 3.000000e+000
      vertex   -6.400000e+001 2.500000e+000 3.000000e+000
      vertex   -3.200000e+001 2.500000e+000 3.000000e+000
    endloop
  endfacet
  facet normal 0.000000e+000 -1.204241e-015 1.000000e+000
    outer loop
      vertex   -5.310004e+001 8.400335e+000 3.000000e+000
      vertex   -5.810004e+001 8.400335e+000 3.000000e+000
      vertex   -6.400000e+001 2.500000e+000 3.000000e+000
    endloop
  endfacet
  facet normal -1.204318e-015 0.000000e+000 1.000000e+000
    outer loop
      vertex   -6.400000e+001 2.500000e+000 3.000000e+000
      vertex   -5.810004e+001 8.400335e+000 3.000000e+000
      vertex   -5.810004e+001 1.340034e+001 3.000000e+000
    endloop
  endfacet
  facet normal -0.000000e+000 2.387069e-016 1.000000e+000
    outer loop
      vertex   -6.400000e+001 4.316667e+001 3.000000e+000
      vertex   -5.810004e+001 1.340034e+001 3.000000e+000
      vertex   -5.310004e+001 1.340034e+001 3.000000e+000
    endloop
  endfacet
  facet normal 3.367495e-016 0.000000e+000 1.000000e+000
    outer loop
      vertex   -3.200000e+001 4.316667e+001 3.000000e+000
      vertex   -5.310004e+001 1.340034e+001 3.000000e+000
      vertex   -3.200000e+001 8.399937e+000 3.000000e+000
    endloop
  endfacet
  facet normal 8.418936e-017 0.000000e+000 1.000000e+000
    outer loop
      vertex   -1.090046e+001 1.339962e+001 3.000000e+000
      vertex   -3.200000e+001 8.399937e+000 3.000000e+000
      vertex   -1.090046e+001 8.399615e+000 3.000000e+000
    endloop
  endfacet
  facet normal 8.418936e-017 0.000000e+000 1.000000e+000
    outer loop
      vertex   -1.090046e+001 1.339962e+001 3.000000e+000
      vertex   -3.200000e+001 4.316667e+001 3.000000e+000
      vertex   -3.200000e+001 8.399937e+000 3.000000e+000
    endloop
  endfacet
  facet normal -3.010982e-016 0.000000e+000 1.000000e+000
    outer loop
      vertex   0.000000e+000 1.245000e+002 3.000000e+000
      vertex   -5.899594e+000 1.136001e+002 3.000000e+000
      vertex   0.000000e+000 8.383333e+001 3.000000e+000
    endloop
  endfacet
  facet normal -1.204318e-015 0.000000e+000 1.000000e+000
    outer loop
      vertex   -6.400000e+001 2.500000e+000 3.000000e+000
      vertex   -5.810004e+001 1.340034e+001 3.000000e+000
      vertex   -6.400000e+001 4.316667e+001 3.000000e+000
    endloop
  endfacet
  facet normal 0.000000e+000 -0.000000e+000 1.000000e+000
    outer loop
      vertex   -3.200000e+001 4.316667e+001 3.000000e+000
      vertex   0.000000e+000 4.316667e+001 3.000000e+000
      vertex   -3.200000e+001 8.383333e+001 3.000000e+000
    endloop
  endfacet
  facet normal -0.000000e+000 0.000000e+000 1.000000e+000
    outer loop
      vertex   -3.200000e+001 8.383333e+001 3.000000e+000
      vertex   0.000000e+000 4.316667e+001 3.000000e+000
      vertex   0.000000e+000 8.383333e+001 3.000000e+000
    endloop
  endfacet
  facet normal -0.000000e+000 5.967582e-017 1.000000e+000
    outer loop
      vertex   -1.089959e+001 1.136001e+002 3.000000e+000
      vertex   -3.200000e+001 8.383333e+001 3.000000e+000
      vertex   0.000000e+000 8.383333e+001 3.000000e+000
    endloop
  endfacet
  facet normal 0.000000e+000 1.204396e-015 1.000000e+000
    outer loop
      vertex   -3.200000e+001 1.245000e+002 3.000000e+000
      vertex   -6.400000e+001 1.245000e+002 3.000000e+000
      vertex   -5.310004e+001 1.186004e+002 3.000000e+000
    endloop
  endfacet
  facet normal -0.000000e+000 0.000000e+000 1.000000e+000
    outer loop
      vertex   -6.400000e+001 8.383333e+001 3.000000e+000
      vertex   -6.400000e+001 4.316667e+001 3.000000e+000
      vertex   -3.200000e+001 4.316667e+001 3.000000e+000
    endloop
  endfacet
  facet normal 0.000000e+000 2.387069e-016 1.000000e+000
    outer loop
      vertex   -3.200000e+001 4.316667e+001 3.000000e+000
      vertex   -6.400000e+001 4.316667e+001 3.000000e+000
      vertex   -5.310004e+001 1.340034e+001 3.000000e+000
    endloop
  endfacet
  facet normal -0.000000e+000 3.010971e-016 1.000000e+000
    outer loop
      vertex   -3.200000e+001 2.500000e+000 3.000000e+000
      vertex   0.000000e+000 2.500000e+000 3.000000e+000
      vertex   -1.090046e+001 8.399615e+000 3.000000e+000
    endloop
  endfacet
  facet normal 0.000000e+000 -0.000000e+000 -1.000000e+000
    outer loop
      vertex   -3.200000e+001 1.245000e+002 0.000000e+000
      vertex   0.000000e+000 1.245000e+002 0.000000e+000
      vertex   -3.200000e+001 8.383333e+001 0.000000e+000
    endloop
  endfacet
  facet normal 0.000000e+000 -0.000000e+000 -1.000000e+000
    outer loop
      vertex   -6.400000e+001 8.383333e+001 0.000000e+000
      vertex   -3.200000e+001 8.383333e+001 0.000000e+000
      vertex   -6.400000e+001 4.316667e+001 0.000000e+000
    endloop
  endfacet
  facet normal 0.000000e+000 0.000000e+000 -1.000000e+000
    outer loop
      vertex   -6.400000e+001 8.383333e+001 0.000000e+000
      vertex   -3.200000e+001 1.245000e+002 0.000000e+000
      vertex   -3.200000e+001 8.383333e+001 0.000000e+000
    endloop
  endfacet
  facet normal 0.000000e+000 0.000000e+000 -1.000000e+000
    outer loop
      vertex   -6.400000e+001 8.383333e+001 0.000000e+000
      vertex   -6.400000e+001 1.245000e+002 0.000000e+000
      vertex   -3.200000e+001 1.245000e+002 0.000000e+000
    endloop
  endfacet
  facet normal 0.000000e+000 0.000000e+000 -1.000000e+000
    outer loop
      vertex   0.000000e+000 4.316667e+001 0.000000e+000
      vertex   -3.200000e+001 4.316667e+001 0.000000e+000
      vertex   0.000000e+000 8.383333e+001 0.000000e+000
    endloop
  endfacet
  facet normal -0.000000e+000 0.000000e+000 -1.000000e+000
    outer loop
      vertex   0.000000e+000 4.316667e+001 0.000000e+000
      vertex   -3.200000e+001 2.500000e+000 0.000000e+000
      vertex   -3.200000e+001 4.316667e+001 0.000000e+000
    endloop
  endfacet
  facet normal -0.000000e+000 -0.000000e+000 -1.000000e+000
    outer loop
      vertex   0.000000e+000 4.316667e+001 0.000000e+000
      vertex   0.000000e+000 2.500000e+000 0.000000e+000
      vertex   -3.200000e+001 2.500000e+000 0.000000e+000
    endloop
  endfacet
  facet normal 0.000000e+000 0.000000e+000 -1.000000e+000
    outer loop
      vertex   -3.200000e+001 2.500000e+000 0.000000e+000
      vertex   -6.400000e+001 2.500000e+000 0.000000e+000
      vertex   -3.200000e+001 4.316667e+001 0.000000e+000
    endloop
  endfacet
  facet normal -0.000000e+000 0.000000e+000 -1.000000e+000
    outer loop
      vertex   -3.200000e+001 4.316667e+001 0.000000e+000
      vertex   -6.400000e+001 2.500000e+000 0.000000e+000
      vertex   -6.400000e+001 4.316667e+001 0.000000e+000
    endloop
  endfacet
  facet normal -0.000000e+000 -0.000000e+000 -1.000000e+000
    outer loop
      vertex   -3.200000e+001 8.383333e+001 0.000000e+000
      vertex   -3.200000e+001 4.316667e+001 0.000000e+000
      vertex   -6.400000e+001 4.316667e+001 0.000000e+000
    endloop
  endfacet
  facet normal 0.000000e+000 -0.000000e+000 -1.000000e+000
    outer loop
      vertex   -3.200000e+001 8.383333e+001 0.000000e+000
      vertex   0.000000e+000 8.383333e+001 0.000000e+000
      vertex   -3.200000e+001 4.316667e+001 0.000000e+000
    endloop
  endfacet
  facet normal 0.000000e+000 0.000000e+000 -1.000000e+000
    outer loop
      vertex   -3.200000e+001 8.383333e+001 0.000000e+000
      vertex   0.000000e+000 1.245000e+002 0.000000e+000
      vertex   0.000000e+000 8.383333e+001 0.000000e+000
    endloop
  endfacet
  facet normal 0.000000e+000 -1.000000e+000 0.000000e+000
    outer loop
      vertex   -6.400000e+001 2.500000e+000 3.000000e+000
      vertex   -6.400000e+001 2.500000e+000 0.000000e+000
      vertex   -3.200000e+001 2.500000e+000 3.000000e+000
    endloop
  endfacet
  facet normal 0.000000e+000 -1.000000e+000 -0.000000e+000
    outer loop
      vertex   -3.200000e+001 2.500000e+000 3.000000e+000
      vertex   -6.400000e+001 2.500000e+000 0.000000e+000
      vertex   -3.200000e+001 2.500000e+000 0.000000e+000
    endloop
  endfacet
  facet normal 0.000000e+000 -1.000000e+000 -0.000000e+000
    outer loop
      vertex   0.000000e+000 2.500000e+000 3.000000e+000
      vertex   -3.200000e+001 2.500000e+000 0.000000e+000
      vertex   0.000000e+000 2.500000e+000 0.000000e+000
    endloop
  endfacet
  facet normal -0.000000e+000 -1.000000e+000 -0.000000e+000
    outer loop
      vertex   0.000000e+000 2.500000e+000 3.000000e+000
      vertex   -3.200000e+001 2.500000e+000 3.000000e+000
      vertex   -3.200000e+001 2.500000e+000 0.000000e+000
    endloop
  endfacet
  facet normal -1.000000e+000 -0.000000e+000 -0.000000e+000
    outer loop
      vertex   -6.400000e+001 1.245000e+002 3.000000e+000
      vertex   -6.400000e+001 1.245000e+002 0.000000e+000
      vertex   -6.400000e+001 8.383333e+001 3.000000e+000
    endloop
  endfacet
  facet normal -1.000000e+000 -0.000000e+000 -0.000000e+000
    outer loop
      vertex   -6.400000e+001 8.383333e+001 3.000000e+000
      vertex   -6.400000e+001 1.245000e+002 0.000000e+000
      vertex   -6.400000e+001 8.383333e+001 0.000000e+000
    endloop
  endfacet
  facet normal -1.000000e+000 -0.000000e+000 -0.000000e+000
    outer loop
      vertex   -6.400000e+001 4.316667e+001 3.000000e+000
      vertex   -6.400000e+001 8.383333e+001 0.000000e+000
      vertex   -6.400000e+001 4.316667e+001 0.000000e+000
    endloop
  endfacet
  facet normal -1.000000e+000 -0.000000e+000 -0.000000e+000
    outer loop
      vertex   -6.400000e+001 2.500000e+000 3.000000e+000
      vertex   -6.400000e+001 4.316667e+001 0.000000e+000
      vertex   -6.400000e+001 2.500000e+000 0.000000e+000
    endloop
  endfacet
  facet normal -1.000000e+000 0.000000e+000 0.000000e+000
    outer loop
      vertex   -6.400000e+001 2.500000e+000 3.000000e+000
      vertex   -6.400000e+001 4.316667e+001 3.000000e+000
      vertex   -6.400000e+001 4.316667e+001 0.000000e+000
    endloop
  endfacet
  facet normal -1.000000e+000 -0.000000e+000 -0.000000e+000
    outer loop
      vertex   -6.400000e+001 8.383333e+001 3.000000e+000
      vertex   -6.400000e+001 8.383333e+001 0.000000e+000
      vertex   -6.400000e+001 4.316667e+001 3.000000e+000
    endloop
  endfacet
  facet normal 0.000000e+000 1.000000e+000 0.000000e+000
    outer loop
      vertex   0.000000e+000 1.245000e+002 3.000000e+000
      vertex   0.000000e+000 1.245000e+002 0.000000e+000
      vertex   -3.200000e+001 1.245000e+002 3.000000e+000
    endloop
  endfacet
  facet normal 0.000000e+000 1.000000e+000 0.000000e+000
    outer loop
      vertex   -3.200000e+001 1.245000e+002 3.000000e+000
      vertex   0.000000e+000 1.245000e+002 0.000000e+000
      vertex   -3.200000e+001 1.245000e+002 0.000000e+000
    endloop
  endfacet
  facet normal 0.000000e+000 1.000000e+000 0.000000e+000
    outer loop
      vertex   -6.400000e+001 1.245000e+002 3.000000e+000
      vertex   -3.200000e+001 1.245000e+002 0.000000e+000
      vertex   -6.400000e+001 1.245000e+002 0.000000e+000
    endloop
  endfacet
  facet normal -0.000000e+000 1.000000e+000 0.000000e+000
    outer loop
      vertex   -6.400000e+001 1.245000e+002 3.000000e+000
      vertex   -3.200000e+001 1.245000e+002 3.000000e+000
      vertex   -3.200000e+001 1.245000e+002 0.000000e+000
    endloop
  endfacet
  facet normal 1.000000e+000 -0.000000e+000 0.000000e+000
    outer loop
      vertex   0.000000e+000 2.500000e+000 3.000000e+000
      vertex   0.000000e+000 2.500000e+000 0.000000e+000
      vertex   0.000000e+000 4.316667e+001 3.000000e+000
    endloop
  endfacet
  facet normal 1.000000e+000 -0.000000e+000 0.000000e+000
    outer loop
      vertex   0.000000e+000 4.316667e+001 3.000000e+000
      vertex   0.000000e+000 2.500000e+000 0.000000e+000
      vertex   0.000000e+000 4.316667e+001 0.000000e+000
    endloop
  endfacet
  facet normal 1.000000e+000 -0.000000e+000 0.000000e+000
    outer loop
      vertex   0.000000e+000 8.383333e+001 3.000000e+000
      vertex   0.000000e+000 4.316667e+001 0.000000e+000
      vertex   0.000000e+000 8.383333e+001 0.000000e+000
    endloop
  endfacet
  facet normal 1.000000e+000 -0.000000e+000 0.000000e+000
    outer loop
      vertex   0.000000e+000 1.245000e+002 3.000000e+000
      vertex   0.000000e+000 8.383333e+001 0.000000e+000
      vertex   0.000000e+000 1.245000e+002 0.000000e+000
    endloop
  endfacet
  facet normal 1.000000e+000 0.000000e+000 0.000000e+000
    outer loop
      vertex   0.000000e+000 1.245000e+002 3.000000e+000
      vertex   0.000000e+000 8.383333e+001 3.000000e+000
      vertex   0.000000e+000 8.383333e+001 0.000000e+000
    endloop
  endfacet
  facet normal 1.000000e+000 -0.000000e+000 0.000000e+000
    outer loop
      vertex   0.000000e+000 4.316667e+001 3.000000e+000
      vertex   0.000000e+000 4.316667e+001 0.000000e+000
      vertex   0.000000e+000 8.383333e+001 3.000000e+000
    endloop
  endfacet
endsolid
